<svg xmlns="http://www.w3.org/2000/svg" width="655.359" height="655.359" fill-rule="evenodd" clip-rule="evenodd" image-rendering="optimizeQuality" shape-rendering="geometricPrecision" text-rendering="geometricPrecision" viewBox="0 0 6.827 6.827" id="microscope"><defs><clipPath id="a"><path d="M3.413 0a3.413 3.413 0 1 1 0 6.827 3.413 3.413 0 0 1 0-6.827z"></path></clipPath></defs><path fill="#512da8" d="M3.413 0a3.413 3.413 0 1 1 0 6.827 3.413 3.413 0 0 1 0-6.827z"></path><g fill="#412780" clip-path="url(#a)"><path d="m4.675 2.384 3.786 3.787.023.026.022.028.021.028.021.028.02.029.019.029.019.03.018.03.017.031.016.031.016.032.015.032.014.033.014.033.012.033.012.034.011.034.011.034.009.035.009.035.007.036.007.035.006.037.005.036.004.037.004.037.002.037.002.037v.038L5.031 3.34l-.001-.038-.001-.038-.002-.037-.004-.037-.004-.036-.005-.037-.006-.036-.007-.036-.008-.035-.008-.035-.01-.035-.01-.034-.011-.035-.012-.033-.012-.034-.014-.033-.014-.032-.015-.032-.016-.032-.016-.031-.018-.031-.018-.03-.018-.03-.02-.029-.02-.029-.02-.029-.022-.028-.022-.027zM4.256 2.717l3.786 3.787-.015-.017-.015-.015-3.786-3.787.015.016zM2.914 3.194 6.7 6.981h-.545L2.369 3.194z"></path><path d="M2.822 3.254 6.608 7.04l.004.005.004.004.003.006.002.005.002.006.002.006.001.006v.006L2.84 3.298v-.006l-.001-.007-.002-.006-.002-.005-.003-.006-.003-.005-.003-.005zM2.976 2.631l3.787 3.786v.501L2.976 3.132zM2.369 3.194l3.786 3.787-.006-.001-.007-.001-.006-.001-.005-.002-.006-.003-.005-.003-.005-.004-.004-.004-3.786-3.786.004.004.005.004.005.003.005.003.006.002.006.001.006.001z"></path><path d="m2.778 3.361 3.786 3.786h-.273L2.505 3.361zM2.981 4.674 6.767 8.46l-.004-.001-.005-.002-.004-.002-.004-.002-.004-.002-.004-.002-.004-.002-.004-.002-.005-.002-.004-.002-.004-.002-.004-.002-.004-.002-.004-.002-.004-.002-.004-.002-3.787-3.786.004.002.005.002.004.002.004.002.004.002.004.002.004.002.004.002.004.002.005.002.004.002.004.002.004.002.004.001.004.002zM2.473 5.413 6.259 9.2l-.007-.001-.006-.001-.006-.001-.005-.002-.006-.003-.005-.003-.005-.004-3.786-3.786.005.004.005.003.005.002.006.003.006.001.006.001zM2.414 4.228 6.2 8.014h-.555L1.858 4.228z"></path><path d="m2.914 4.643 3.787 3.786-.018-.009-.018-.01-.018-.01-.018-.01-.017-.01-.018-.01-.017-.011-.017-.011-.017-.011-.017-.012-.017-.012-.016-.011-.017-.013-.016-.012-.016-.013-.016-.013-.015-.013-.016-.013-.015-.014-3.786-3.786.015.014.015.013.016.013.016.013.016.013.016.012.017.012.016.012.017.012.016.011.017.012.018.011.017.01.017.011.018.01.017.01.018.01.018.01zM1.858 4.228l3.787 3.786h-.007l-.006-.001-.006-.001-.006-.002-.005-.003-.005-.003L5.605 8 1.819 4.214l.004.004.006.003.005.002.006.002.006.002.006.001zM2.505 3.361l3.786 3.786-.006-.001h-.006l-.006-.002-.006-.002-.005-.003-.006-.003-.004-.003-.005-.004-3.786-3.787.004.004.005.004.005.003.006.003.005.002.006.001.007.001zM2.976 3.132l3.787 3.786-.001.007-.001.006-.001.006-.002.006-.003.005-.003.005-.004.005-.004.004-.004.004-.005.004-.005.003-.006.003-.005.002-.006.001-.007.001-.006.001-3.786-3.787h.006l.006-.001.006-.001.006-.002.006-.003.005-.003.005-.004.004-.004.004-.004.004-.005.003-.005.002-.006.002-.005.002-.006.001-.007zM3.468 3.784 7.255 7.57l.004.005.003.005.003.005.003.005.002.006.002.006.001.006v.007L3.487 3.828l-.001-.006-.001-.006-.001-.006-.002-.006-.003-.005-.003-.006-.004-.004zM2.84 3.298l3.786 3.786v.007l-.001.006-.002.006-.002.006-.002.005-.003.005-.004.005-.004.005-.004.004-.005.003-.005.003-.006.003-.006.002-.006.002H6.57l-.006.001-3.786-3.786.006-.001.006-.001.006-.001.006-.002.005-.003.005-.003.005-.004.005-.004.004-.004.003-.005.003-.005.003-.006.002-.005.002-.006.001-.007zM3.487 4.166l3.786 3.786v.006l-.001.007-.002.006-.002.005-.003.006-.003.005-.003.005-.004.004L7.25 8l-.005.004-.005.003-.005.003-.006.002-.006.001-.006.001H7.21L3.424 4.228h.007l.006-.001.006-.002.005-.002.006-.002.005-.003.005-.004.004-.004.004-.005.004-.004.003-.005.003-.006.002-.006.001-.006.001-.006zM2.961 1.476l3.786 3.786v.006l-.001.007-.002.006-.002.005-.002.006-.003.005-.004.005-.004.004-.004.004-.005.004-.005.003-.006.003-.006.002-.006.001-.006.001-.006.001-3.786-3.787h.006l.006-.001.006-.001.006-.003.005-.002.005-.003.005-.004.005-.004.004-.004.003-.005.003-.005.003-.006.002-.006.002-.006.001-.006z"></path><path d="m2.899 1.538 3.786 3.787H6.17L2.384 1.538zM3.244 2.474 7.03 6.26l-.009.004-.009.003-.009.004-.009.004-.008.003-.009.004-.009.004-.009.004-.009.005-.008.004-.009.004-.009.005-.008.005-.009.004-.008.005-.009.005-.008.005-.008.005-.009.005-.008.005-.008.006-.008.005-.008.006-.008.005-.008.006-.008.006-.008.005-.008.006-.008.006-.007.007-.008.006-.007.006-3.787-3.786.008-.007.007-.006.008-.006.008-.006.008-.006.008-.006.008-.005.007-.006.009-.006.008-.005.008-.006.008-.005.008-.005.008-.005.009-.005.008-.005.009-.005.008-.005.009-.005.008-.004.009-.005.008-.004.009-.005.009-.004.009-.004.008-.004.009-.004.009-.004.009-.003.009-.004.009-.004zM2.943 1.432l3.786 3.786.004.004.004.005.003.005.002.006.002.006.002.006.001.006v.006L2.961 1.476v-.007l-.001-.006-.002-.006-.002-.005-.003-.006-.003-.005-.003-.005zM3.487 3.828l3.786 3.787v.337L3.487 4.166z"></path><path d="M4.603 4.372 8.39 8.158l-.013.012-.012.012-.012.011-.012.012-.013.011-.013.011-.012.011-.013.011-.014.011-.013.01-.013.011-.014.01-.013.01-.014.01-.014.01-.014.01-.014.009-.014.01-.014.009-.014.009-.015.009-.015.008-.014.009-.015.008-.015.008-.015.008-.015.008-.016.008-.015.008-.015.007-.016.007-.016.007-3.786-3.786.016-.007.015-.007.016-.008.015-.007.015-.008.016-.008.015-.008.015-.008.014-.008.015-.009.015-.009.014-.008.015-.009.014-.01.014-.009.014-.01.014-.009.014-.01.014-.01.013-.01.014-.01.013-.011.013-.01.013-.011.013-.011.013-.011.013-.011.012-.012.013-.011.012-.012.012-.011z"></path><path d="m4.455 4.815 3.786 3.786.008.008-3.786-3.786zM3.424 4.228 7.21 8.014h-.111L3.313 4.228zM2.976 1.642l3.787 3.786v.365L2.976 2.007z"></path><path d="m2.958 1.598 3.786 3.786.004.004.004.005.003.005.003.006.002.006.001.006.001.006.001.006-3.787-3.786v-.006l-.001-.007-.002-.006-.002-.005-.002-.006-.003-.005-.004-.005zM4.611 5.18l3.786 3.786v.171L4.611 5.351z"></path><path d="m4.463 4.823 3.786 3.786.009.009.008.008.008.009.008.01.007.009.008.01.007.01.007.01.007.01.006.01.006.011.006.01.006.011.005.011.006.011.005.012.004.011.005.011.004.012.004.012.003.012.004.012.002.012.003.012.003.013.002.012.001.013.002.012.001.013.001.013v.026L4.611 5.18v-.026l-.001-.013-.001-.013-.002-.013-.002-.012-.002-.013-.002-.012-.003-.012-.003-.012-.003-.012-.004-.012-.003-.012-.005-.012-.004-.011-.005-.012-.005-.011-.005-.011-.005-.011-.006-.011-.006-.011-.006-.01-.007-.01-.006-.011-.007-.01-.007-.009-.008-.01-.008-.01-.007-.009-.008-.009-.009-.009zM4.611 5.351l3.786 3.786v.006l-.001.007-.001.006-.002.005-.003.006-.003.005-.004.005-.004.004-.004.004-.005.004-.005.003-.006.003-.005.002-.006.001-.007.001-.006.001-3.786-3.787h.006l.006-.001.006-.001.006-.003.006-.002.005-.003.004-.004.005-.004.004-.004.004-.005.003-.005.002-.006.002-.006.002-.006.001-.006z"></path><path d="M4.549 5.413 8.335 9.2H6.259L2.473 5.413zM4.226 2.685l3.786 3.787-.016-.016-.016-.015-.017-.015-.017-.014-.017-.014-.018-.014-.018-.013-.018-.012-.019-.013-.019-.012-.019-.011-.019-.011-.02-.01-.02-.01-.021-.01-.02-.009-.021-.008-.021-.008-.022-.008-.021-.007-.022-.006-.022-.006-.023-.006-.022-.005-.023-.004-.023-.004-.023-.003-.023-.003-.023-.002-.024-.001-.024-.001-.024-.001-3.786-3.786.024.001h.024l.023.002.024.002.023.003.023.003.023.004.023.004.022.005.022.005.023.006.021.007.022.007.021.007.022.008.02.009.021.009.02.009.02.01.02.011.02.011.019.011.019.012.019.012.018.013.018.013.018.014.017.014.017.014.016.015.017.015zM2.384 1.538 6.17 5.325l-.006-.001-.006-.001-.006-.001-.006-.002-.005-.003-.006-.003-.004-.004-.005-.004L2.34 1.52l.004.004.005.004.005.003.006.002.005.003.006.001.007.001z"></path><path d="M3.571 2.414 7.357 6.2l-.01.001h-.032l-.01.001-.011.001h-.01l-.011.001-.01.001-.011.001-.01.002-.01.001-.011.002-.01.001-.01.002-.011.002-.01.002-.01.002-.01.002-.01.002-.011.002-.01.003-.01.003-.01.002-.01.003-.01.003-.01.003-.01.003-.009.004-.01.003-.01.003-.01.004-3.786-3.786.01-.004.01-.003.009-.004.01-.003.01-.003.01-.003.01-.003.01-.003.01-.003.01-.002.01-.003.01-.002.01-.002.011-.003.01-.002.01-.002.01-.001.011-.002.01-.002.01-.001.011-.002.01-.001.011-.001.01-.001.01-.001.011-.001h.01l.011-.001h.01l.011-.001h.011z"></path><path d="m5.031 3.34 3.786 3.786v.038l-.002.037-.002.037-.004.037-.004.037-.005.036-.006.036-.007.036-.007.035-.009.036-.009.034-.011.035-.011.034-.012.034-.012.033-.014.033-.014.033-.015.032-.016.031-.016.032-.017.03-.018.031-.019.03-.019.029-.02.029-.021.028-.021.028-.022.027-.023.027-.023.026-.024.026-.024.025-3.787-3.786.025-.025.024-.026.023-.026.022-.027.022-.027.022-.028.02-.029.02-.028.02-.03.018-.03.018-.03.018-.031.016-.031.016-.032.015-.032.014-.032.014-.033.012-.034.012-.033.011-.034.01-.035.01-.035.008-.035.008-.035.007-.036.006-.036.005-.037.004-.036.004-.037.002-.037.001-.038z"></path><path d="M3.571 1.88c.403 0 .768.163 1.032.428a1.455 1.455 0 0 1-.446 2.37.505.505 0 0 1 .454.502v.17a.063.063 0 0 1-.062.063H2.473a.063.063 0 0 1-.063-.062V5.18a.504.504 0 0 1 .505-.506h.066a1.462 1.462 0 0 1-.567-.446h-.556a.063.063 0 0 1-.062-.062v-.338c0-.034.028-.062.062-.062h1.566c.035 0 .063.028.063.062v.338a.063.063 0 0 1-.063.062h-.112a.926.926 0 1 0-.336-1.597v.501a.063.063 0 0 1-.062.062h-.545a.063.063 0 0 1-.063-.062v-1.49c0-.035.028-.063.063-.063h.545c.034 0 .062.028.062.063v.365a1.462 1.462 0 0 1 .595-.127zM2.443 3.298c0-.034.028-.062.062-.062h.273a.063.063 0 0 1 0 .125h-.273a.063.063 0 0 1-.062-.063zm-.121-1.822c0-.035.028-.063.062-.063h.515a.063.063 0 0 1 0 .125h-.515a.063.063 0 0 1-.062-.062z"></path></g><path fill="none" d="M3.413 0a3.413 3.413 0 1 1 0 6.827 3.413 3.413 0 0 1 0-6.827z"></path><path fill="#fffffe" fill-rule="nonzero" d="M1.858 3.766h1.566c.035 0 .063.028.063.062v.338a.063.063 0 0 1-.063.062H1.858a.063.063 0 0 1-.062-.062v-.338c0-.034.028-.062.062-.062zm1.504.125H1.92v.212h1.44v-.212zm1.187 1.522H2.473a.063.063 0 0 1-.063-.062V5.18a.504.504 0 0 1 .505-.506h1.19a.504.504 0 0 1 .506.506v.17a.063.063 0 0 1-.062.063zm-2.014-.125h1.951V5.18a.38.38 0 0 0-.38-.38h-1.19a.38.38 0 0 0-.38.38v.108z"></path><path fill="#fffffe" fill-rule="nonzero" d="M2.498 4.133a.062.062 0 0 0-.1.075 1.459 1.459 0 1 0 .514-2.17.062.062 0 0 0 .056.111 1.335 1.335 0 1 1-.47 1.984z"></path><path fill="#fffffe" fill-rule="nonzero" d="M3.069 4.117a.062.062 0 0 0-.067.105 1.05 1.05 0 1 0-.125-1.67.062.062 0 0 0 .082.093.925.925 0 1 1 .11 1.472z"></path><path fill="#fffffe" fill-rule="nonzero" d="M2.369 1.58h.545c.034 0 .062.027.062.062v1.49a.063.063 0 0 1-.062.062h-.545a.063.063 0 0 1-.063-.062v-1.49c0-.035.028-.063.063-.063zm.482.124h-.42V3.07h.42V1.704zm-.346 1.532a.063.063 0 0 0 0 .125h.273a.063.063 0 0 0 0-.125h-.273zm-.121-1.823a.063.063 0 0 0 0 .125h.515a.063.063 0 0 0 0-.125h-.515z"></path></svg>